<?xml version="1.0" standalone="no"?>
<!DOCTYPE svg PUBLIC "-//W3C//DTD SVG 20010904//EN"
 "http://www.w3.org/TR/2001/REC-SVG-20010904/DTD/svg10.dtd">
<svg version="1.0" xmlns="http://www.w3.org/2000/svg"
 width="700.000000pt" height="700.000000pt" viewBox="0 0 700.000000 700.000000"
 preserveAspectRatio="xMidYMid meet">
<metadata>
Created by potrace 1.14, written by Peter Selinger 2001-2017
</metadata>
<g transform="translate(0.000000,700.000000) scale(0.100000,-0.100000)"
fill="#000000" stroke="none">
<path d="M3278 6996 c-1 -2 -39 -6 -83 -10 -400 -31 -838 -151 -1213 -333
-177 -86 -446 -246 -552 -330 -8 -6 -51 -40 -95 -74 -425 -331 -812 -824
-1020 -1299 -25 -58 -52 -118 -59 -135 -51 -115 -148 -423 -171 -546 -3 -13
-11 -58 -20 -99 -29 -147 -35 -193 -52 -370 -15 -162 -8 -592 12 -711 2 -13 6
-46 9 -74 21 -182 109 -547 165 -680 5 -11 25 -65 46 -120 63 -166 249 -531
312 -610 4 -6 34 -49 65 -95 52 -78 214 -286 263 -336 198 -208 293 -297 445
-419 92 -74 370 -265 386 -265 4 0 15 -6 23 -14 29 -25 304 -161 431 -213 176
-72 415 -148 563 -179 89 -19 213 -41 276 -50 25 -3 57 -8 71 -10 168 -26 656
-25 850 2 89 12 104 15 124 19 12 2 37 7 56 9 342 49 815 223 1158 426 l103
61 -254 255 -254 254 -144 -69 c-195 -94 -468 -189 -613 -215 -16 -3 -52 -10
-80 -15 -73 -15 -104 -20 -166 -27 -30 -3 -81 -9 -113 -13 -80 -11 -415 -10
-502 0 -38 5 -92 11 -120 14 -79 9 -252 44 -350 70 -915 247 -1648 944 -1940
1845 -31 99 -63 220 -79 300 -42 219 -51 316 -51 560 0 173 6 293 19 370 3 14
7 43 10 65 2 22 9 60 15 85 5 25 13 61 16 80 16 95 89 330 144 465 68 166 252
499 284 513 4 2 7 8 7 13 0 15 112 160 199 259 467 530 1117 864 1821 937 148
15 534 8 650 -11 14 -3 43 -7 66 -10 22 -3 85 -14 140 -26 54 -12 108 -23 119
-26 11 -2 72 -20 135 -40 522 -164 952 -451 1322 -882 148 -171 329 -468 423
-692 64 -153 143 -397 159 -492 3 -18 12 -69 21 -112 15 -78 18 -98 35 -246
13 -118 5 -490 -14 -620 -45 -314 -131 -597 -263 -863 l-63 -128 254 -255
c176 -176 257 -250 263 -242 9 15 17 27 62 105 47 80 131 245 165 323 16 36
36 83 46 105 54 123 147 418 176 560 17 81 54 301 59 350 4 33 9 71 11 85 9
47 11 525 4 605 -16 167 -22 220 -25 225 -2 3 -6 30 -10 60 -3 30 -10 71 -15
90 -5 19 -12 51 -15 70 -13 77 -66 272 -106 390 -349 1041 -1164 1856 -2204
2208 -167 56 -419 119 -555 137 -19 3 -46 7 -60 10 -13 2 -54 7 -90 11 -36 3
-76 8 -90 11 -27 5 -536 14 -542 9z"/>
<path d="M3260 5939 c-136 -17 -158 -20 -255 -40 -383 -78 -763 -261 -1075
-518 -82 -67 -266 -255 -335 -341 -78 -96 -190 -264 -249 -372 -92 -170 -191
-424 -221 -568 -2 -8 -9 -37 -15 -65 -37 -157 -51 -288 -55 -490 -4 -225 5
-334 45 -535 93 -465 327 -898 669 -1241 154 -153 280 -251 516 -396 44 -27
245 -123 318 -152 74 -29 279 -95 329 -105 105 -22 188 -37 222 -41 23 -3 73
-9 111 -14 88 -11 380 -11 460 -1 33 5 85 11 115 14 195 23 494 110 685 201
l76 36 -264 265 -265 265 -93 -25 c-92 -24 -164 -39 -264 -54 -67 -9 -366 -8
-435 2 -243 35 -400 87 -640 212 -19 10 -71 42 -115 72 -255 175 -454 399
-584 659 -136 272 -192 522 -186 828 2 94 5 179 8 190 2 11 10 54 17 95 23
141 124 431 166 481 8 8 14 21 14 27 0 14 94 161 157 244 68 91 234 253 338
330 100 75 227 149 325 192 36 15 79 34 95 41 74 33 226 71 395 100 78 14 367
13 464 -1 389 -55 724 -222 1002 -499 278 -276 441 -607 500 -1015 10 -67 11
-366 1 -435 -16 -112 -31 -183 -58 -274 -10 -35 -19 -67 -19 -73 0 -12 515
-528 527 -528 9 0 24 30 73 145 65 150 128 368 154 530 23 140 29 205 31 380
3 221 -6 325 -45 525 -58 297 -191 614 -367 876 -285 423 -715 761 -1188 933
-90 32 -232 76 -280 85 -5 2 -35 8 -65 14 -174 36 -252 44 -465 47 -115 1
-239 -2 -275 -6z"/>
<path d="M3369 4896 c-2 -2 -26 -6 -54 -9 -212 -22 -516 -149 -671 -279 -80
-67 -114 -98 -164 -151 -187 -199 -303 -431 -361 -719 -17 -84 -19 -322 -5
-428 86 -618 578 -1112 1192 -1197 115 -16 387 -8 457 13 14 4 -77 101 -399
422 -230 229 -439 443 -465 474 -46 56 -124 197 -135 248 -31 135 -35 172 -30
270 11 229 108 413 301 574 47 40 194 111 270 131 111 29 270 29 382 0 104
-27 214 -80 288 -141 28 -22 240 -230 472 -463 368 -368 423 -419 428 -399 15
68 17 95 20 233 3 186 -12 292 -67 465 -19 60 -77 195 -98 230 -6 8 -18 31
-29 50 -66 121 -228 298 -370 406 -149 112 -403 223 -571 249 -25 4 -54 9 -65
12 -26 6 -320 15 -326 9z"/>
<path d="M3386 3984 c-220 -52 -372 -237 -380 -464 -2 -42 3 -99 11 -130 37
-140 -35 -63 1542 -1641 1446 -1447 1467 -1467 1541 -1502 92 -43 146 -55 237
-51 301 12 517 292 459 594 -4 19 -23 69 -43 110 -34 74 -60 100 -1491 1532
-1526 1527 -1505 1508 -1628 1544 -72 21 -179 24 -248 8z"/>
</g>
</svg>
